M48
; DRILL file {KiCad 8.0.5} date 2024-09-17T15:05:26-0500
; FORMAT={-:-/ absolute / inch / decimal}
; #@! TF.CreationDate,2024-09-17T15:05:26-05:00
; #@! TF.GenerationSoftware,Kicad,Pcbnew,8.0.5
; #@! TF.FileFunction,Plated,1,2,PTH
FMAT,2
INCH
; #@! TA.AperFunction,Plated,PTH,ViaDrill
T1C0.0256
; #@! TA.AperFunction,Plated,PTH,ComponentDrill
T2C0.0300
; #@! TA.AperFunction,Plated,PTH,ComponentDrill
T3C0.0315
; #@! TA.AperFunction,Plated,PTH,ComponentDrill
T4C0.0394
; #@! TA.AperFunction,Plated,PTH,ComponentDrill
T5C0.0402
%
G90
G05
T1
X3.8976Y-3.8976
X4.8622Y-3.6024
X5.5512Y-4.5079
X5.6299Y-3.937
X5.689Y-4.5079
X5.7677Y-4.0748
X5.8465Y-3.7402
X6.1811Y-4.0945
X6.2992Y-4.9409
X6.5748Y-3.9764
X6.5748Y-4.2126
X6.5748Y-4.4685
X6.5945Y-4.0945
X6.6339Y-3.5236
X6.7717Y-4.1535
X6.7717Y-4.685
X6.811Y-3.9764
X6.8898Y-4.4291
X6.8898Y-4.9016
X7.0866Y-3.563
X7.3819Y-3.4252
X7.6181Y-3.622
X8.0315Y-5.1575
X8.0906Y-4.6457
X8.0906Y-4.9606
X8.189Y-4.7244
X8.189Y-5.0
X8.248Y-5.1575
X8.3071Y-5.1575
X8.3071Y-5.1575
X8.4646Y-5.1575
X9.0748Y-5.1772
X9.4685Y-5.2756
T2
X3.1236Y-3.9594
X3.2236Y-3.9594
X3.3236Y-3.9594
X3.4236Y-3.9594
X3.5236Y-3.9594
X3.6236Y-3.9594
X3.7597Y-5.2206
X3.7597Y-5.3206
X3.7597Y-5.4206
X3.7597Y-5.5206
X6.965Y-3.7394
X6.965Y-3.8394
X6.965Y-3.9394
X6.965Y-4.0394
X6.965Y-4.1394
X6.965Y-4.2394
X6.965Y-4.3394
X6.965Y-4.4394
X6.965Y-4.5394
X6.965Y-4.6394
X6.965Y-4.7394
X6.965Y-4.8394
X6.965Y-4.9394
X6.965Y-5.0394
X7.2835Y-5.374
X7.2835Y-5.5709
X7.6858Y-5.2953
X7.7858Y-5.2953
X7.8858Y-5.2953
X7.9858Y-5.2953
X8.0858Y-5.2953
X8.1858Y-5.2953
X8.2858Y-5.2953
X8.3858Y-5.2953
T3
X4.3878Y-3.3386
X4.4878Y-3.3386
X4.5878Y-3.3386
X4.6878Y-3.3386
T4
X3.19Y-3.2776
X3.19Y-3.3776
X3.5591Y-5.2943
X3.5591Y-5.3943
X3.5591Y-5.4943
X9.252Y-5.5315
X9.252Y-5.6315
X9.252Y-5.7315
T5
X5.4961Y-3.7598
X5.4961Y-3.8598
X5.4961Y-3.9598
X5.4961Y-4.0598
X5.4961Y-4.1598
X5.4961Y-4.2598
X5.4961Y-4.3598
X5.4961Y-4.4598
X5.4961Y-4.5598
X5.4961Y-4.6598
X5.4961Y-4.7598
X5.4961Y-4.8598
X5.4961Y-4.9598
X5.4961Y-5.0598
X5.4961Y-5.1598
X6.4961Y-3.7598
X6.4961Y-3.8598
X6.4961Y-3.9598
X6.4961Y-4.0598
X6.4961Y-4.1598
X6.4961Y-4.2598
X6.4961Y-4.3598
X6.4961Y-4.4598
X6.4961Y-4.5598
X6.4961Y-4.6598
X6.4961Y-4.7598
X6.4961Y-4.8598
X6.4961Y-4.9598
X6.4961Y-5.0598
X6.4961Y-5.1598
T4
G00X3.455Y-3.563
M15
G01X3.455Y-3.6417
M16
G05
G00X3.6794Y-3.4843
M15
G01X3.6007Y-3.4843
M16
G05
G00X3.6794Y-3.7205
M15
G01X3.6007Y-3.7205
M16
G05
M30
