%TF.GenerationSoftware,KiCad,Pcbnew,8.0.5*%
%TF.CreationDate,2024-09-17T15:06:14-05:00*%
%TF.ProjectId,ciclocomputador,6369636c-6f63-46f6-9d70-757461646f72,rev?*%
%TF.SameCoordinates,Original*%
%TF.FileFunction,Legend,Top*%
%TF.FilePolarity,Positive*%
%FSLAX46Y46*%
G04 Gerber Fmt 4.6, Leading zero omitted, Abs format (unit mm)*
G04 Created by KiCad (PCBNEW 8.0.5) date 2024-09-17 15:06:14*
%MOMM*%
%LPD*%
G01*
G04 APERTURE LIST*
%ADD10C,0.150000*%
%ADD11C,0.100000*%
%ADD12C,0.120000*%
%ADD13C,0.127000*%
%ADD14C,0.200000*%
%ADD15C,4.400000*%
G04 APERTURE END LIST*
D10*
X97166666Y-111754819D02*
X96833333Y-111278628D01*
X96595238Y-111754819D02*
X96595238Y-110754819D01*
X96595238Y-110754819D02*
X96976190Y-110754819D01*
X96976190Y-110754819D02*
X97071428Y-110802438D01*
X97071428Y-110802438D02*
X97119047Y-110850057D01*
X97119047Y-110850057D02*
X97166666Y-110945295D01*
X97166666Y-110945295D02*
X97166666Y-111088152D01*
X97166666Y-111088152D02*
X97119047Y-111183390D01*
X97119047Y-111183390D02*
X97071428Y-111231009D01*
X97071428Y-111231009D02*
X96976190Y-111278628D01*
X96976190Y-111278628D02*
X96595238Y-111278628D01*
X97595238Y-111231009D02*
X97928571Y-111231009D01*
X98071428Y-111754819D02*
X97595238Y-111754819D01*
X97595238Y-111754819D02*
X97595238Y-110754819D01*
X97595238Y-110754819D02*
X98071428Y-110754819D01*
X98833333Y-111231009D02*
X98500000Y-111231009D01*
X98500000Y-111754819D02*
X98500000Y-110754819D01*
X98500000Y-110754819D02*
X98976190Y-110754819D01*
X99500000Y-110754819D02*
X99500000Y-110992914D01*
X99261905Y-110897676D02*
X99500000Y-110992914D01*
X99500000Y-110992914D02*
X99738095Y-110897676D01*
X99357143Y-111183390D02*
X99500000Y-110992914D01*
X99500000Y-110992914D02*
X99642857Y-111183390D01*
X100261905Y-110754819D02*
X100261905Y-110992914D01*
X100023810Y-110897676D02*
X100261905Y-110992914D01*
X100261905Y-110992914D02*
X100500000Y-110897676D01*
X100119048Y-111183390D02*
X100261905Y-110992914D01*
X100261905Y-110992914D02*
X100404762Y-111183390D01*
X151166666Y-142754819D02*
X150833333Y-142278628D01*
X150595238Y-142754819D02*
X150595238Y-141754819D01*
X150595238Y-141754819D02*
X150976190Y-141754819D01*
X150976190Y-141754819D02*
X151071428Y-141802438D01*
X151071428Y-141802438D02*
X151119047Y-141850057D01*
X151119047Y-141850057D02*
X151166666Y-141945295D01*
X151166666Y-141945295D02*
X151166666Y-142088152D01*
X151166666Y-142088152D02*
X151119047Y-142183390D01*
X151119047Y-142183390D02*
X151071428Y-142231009D01*
X151071428Y-142231009D02*
X150976190Y-142278628D01*
X150976190Y-142278628D02*
X150595238Y-142278628D01*
X151595238Y-142231009D02*
X151928571Y-142231009D01*
X152071428Y-142754819D02*
X151595238Y-142754819D01*
X151595238Y-142754819D02*
X151595238Y-141754819D01*
X151595238Y-141754819D02*
X152071428Y-141754819D01*
X152833333Y-142231009D02*
X152500000Y-142231009D01*
X152500000Y-142754819D02*
X152500000Y-141754819D01*
X152500000Y-141754819D02*
X152976190Y-141754819D01*
X153500000Y-141754819D02*
X153500000Y-141992914D01*
X153261905Y-141897676D02*
X153500000Y-141992914D01*
X153500000Y-141992914D02*
X153738095Y-141897676D01*
X153357143Y-142183390D02*
X153500000Y-141992914D01*
X153500000Y-141992914D02*
X153642857Y-142183390D01*
X154261905Y-141754819D02*
X154261905Y-141992914D01*
X154023810Y-141897676D02*
X154261905Y-141992914D01*
X154261905Y-141992914D02*
X154500000Y-141897676D01*
X154119048Y-142183390D02*
X154261905Y-141992914D01*
X154261905Y-141992914D02*
X154404762Y-142183390D01*
X113785595Y-128247319D02*
X113785595Y-129056842D01*
X113785595Y-129056842D02*
X113833214Y-129152080D01*
X113833214Y-129152080D02*
X113880833Y-129199700D01*
X113880833Y-129199700D02*
X113976071Y-129247319D01*
X113976071Y-129247319D02*
X114166547Y-129247319D01*
X114166547Y-129247319D02*
X114261785Y-129199700D01*
X114261785Y-129199700D02*
X114309404Y-129152080D01*
X114309404Y-129152080D02*
X114357023Y-129056842D01*
X114357023Y-129056842D02*
X114357023Y-128247319D01*
X114785595Y-128342557D02*
X114833214Y-128294938D01*
X114833214Y-128294938D02*
X114928452Y-128247319D01*
X114928452Y-128247319D02*
X115166547Y-128247319D01*
X115166547Y-128247319D02*
X115261785Y-128294938D01*
X115261785Y-128294938D02*
X115309404Y-128342557D01*
X115309404Y-128342557D02*
X115357023Y-128437795D01*
X115357023Y-128437795D02*
X115357023Y-128533033D01*
X115357023Y-128533033D02*
X115309404Y-128675890D01*
X115309404Y-128675890D02*
X114737976Y-129247319D01*
X114737976Y-129247319D02*
X115357023Y-129247319D01*
D11*
X217542580Y-120738095D02*
X216733057Y-120738095D01*
X216733057Y-120738095D02*
X216637819Y-120785714D01*
X216637819Y-120785714D02*
X216590200Y-120833333D01*
X216590200Y-120833333D02*
X216542580Y-120928571D01*
X216542580Y-120928571D02*
X216542580Y-121119047D01*
X216542580Y-121119047D02*
X216590200Y-121214285D01*
X216590200Y-121214285D02*
X216637819Y-121261904D01*
X216637819Y-121261904D02*
X216733057Y-121309523D01*
X216733057Y-121309523D02*
X217542580Y-121309523D01*
X217542580Y-122261904D02*
X217542580Y-121785714D01*
X217542580Y-121785714D02*
X217066390Y-121738095D01*
X217066390Y-121738095D02*
X217114009Y-121785714D01*
X217114009Y-121785714D02*
X217161628Y-121880952D01*
X217161628Y-121880952D02*
X217161628Y-122119047D01*
X217161628Y-122119047D02*
X217114009Y-122214285D01*
X217114009Y-122214285D02*
X217066390Y-122261904D01*
X217066390Y-122261904D02*
X216971152Y-122309523D01*
X216971152Y-122309523D02*
X216733057Y-122309523D01*
X216733057Y-122309523D02*
X216637819Y-122261904D01*
X216637819Y-122261904D02*
X216590200Y-122214285D01*
X216590200Y-122214285D02*
X216542580Y-122119047D01*
X216542580Y-122119047D02*
X216542580Y-121880952D01*
X216542580Y-121880952D02*
X216590200Y-121785714D01*
X216590200Y-121785714D02*
X216637819Y-121738095D01*
D10*
X86451904Y-111775180D02*
X86451904Y-110965657D01*
X86451904Y-110965657D02*
X86404285Y-110870419D01*
X86404285Y-110870419D02*
X86356666Y-110822800D01*
X86356666Y-110822800D02*
X86261428Y-110775180D01*
X86261428Y-110775180D02*
X86070952Y-110775180D01*
X86070952Y-110775180D02*
X85975714Y-110822800D01*
X85975714Y-110822800D02*
X85928095Y-110870419D01*
X85928095Y-110870419D02*
X85880476Y-110965657D01*
X85880476Y-110965657D02*
X85880476Y-111775180D01*
X84975714Y-111441847D02*
X84975714Y-110775180D01*
X85213809Y-111822800D02*
X85451904Y-111108514D01*
X85451904Y-111108514D02*
X84832857Y-111108514D01*
X140183095Y-83109819D02*
X140183095Y-83919342D01*
X140183095Y-83919342D02*
X140230714Y-84014580D01*
X140230714Y-84014580D02*
X140278333Y-84062200D01*
X140278333Y-84062200D02*
X140373571Y-84109819D01*
X140373571Y-84109819D02*
X140564047Y-84109819D01*
X140564047Y-84109819D02*
X140659285Y-84062200D01*
X140659285Y-84062200D02*
X140706904Y-84014580D01*
X140706904Y-84014580D02*
X140754523Y-83919342D01*
X140754523Y-83919342D02*
X140754523Y-83109819D01*
X141754523Y-84109819D02*
X141183095Y-84109819D01*
X141468809Y-84109819D02*
X141468809Y-83109819D01*
X141468809Y-83109819D02*
X141373571Y-83252676D01*
X141373571Y-83252676D02*
X141278333Y-83347914D01*
X141278333Y-83347914D02*
X141183095Y-83395533D01*
X239046666Y-147804819D02*
X239046666Y-148519104D01*
X239046666Y-148519104D02*
X238999047Y-148661961D01*
X238999047Y-148661961D02*
X238903809Y-148757200D01*
X238903809Y-148757200D02*
X238760952Y-148804819D01*
X238760952Y-148804819D02*
X238665714Y-148804819D01*
X239951428Y-148138152D02*
X239951428Y-148804819D01*
X239713333Y-147757200D02*
X239475238Y-148471485D01*
X239475238Y-148471485D02*
X240094285Y-148471485D01*
X86162319Y-86383333D02*
X86876604Y-86383333D01*
X86876604Y-86383333D02*
X87019461Y-86430952D01*
X87019461Y-86430952D02*
X87114700Y-86526190D01*
X87114700Y-86526190D02*
X87162319Y-86669047D01*
X87162319Y-86669047D02*
X87162319Y-86764285D01*
X86162319Y-86002380D02*
X86162319Y-85383333D01*
X86162319Y-85383333D02*
X86543271Y-85716666D01*
X86543271Y-85716666D02*
X86543271Y-85573809D01*
X86543271Y-85573809D02*
X86590890Y-85478571D01*
X86590890Y-85478571D02*
X86638509Y-85430952D01*
X86638509Y-85430952D02*
X86733747Y-85383333D01*
X86733747Y-85383333D02*
X86971842Y-85383333D01*
X86971842Y-85383333D02*
X87067080Y-85430952D01*
X87067080Y-85430952D02*
X87114700Y-85478571D01*
X87114700Y-85478571D02*
X87162319Y-85573809D01*
X87162319Y-85573809D02*
X87162319Y-85859523D01*
X87162319Y-85859523D02*
X87114700Y-85954761D01*
X87114700Y-85954761D02*
X87067080Y-86002380D01*
X85686666Y-131159819D02*
X85686666Y-131874104D01*
X85686666Y-131874104D02*
X85639047Y-132016961D01*
X85639047Y-132016961D02*
X85543809Y-132112200D01*
X85543809Y-132112200D02*
X85400952Y-132159819D01*
X85400952Y-132159819D02*
X85305714Y-132159819D01*
X86686666Y-132159819D02*
X86115238Y-132159819D01*
X86400952Y-132159819D02*
X86400952Y-131159819D01*
X86400952Y-131159819D02*
X86305714Y-131302676D01*
X86305714Y-131302676D02*
X86210476Y-131397914D01*
X86210476Y-131397914D02*
X86115238Y-131445533D01*
X80239285Y-80411009D02*
X80382142Y-80458628D01*
X80382142Y-80458628D02*
X80429761Y-80506247D01*
X80429761Y-80506247D02*
X80477380Y-80601485D01*
X80477380Y-80601485D02*
X80477380Y-80744342D01*
X80477380Y-80744342D02*
X80429761Y-80839580D01*
X80429761Y-80839580D02*
X80382142Y-80887200D01*
X80382142Y-80887200D02*
X80286904Y-80934819D01*
X80286904Y-80934819D02*
X79905952Y-80934819D01*
X79905952Y-80934819D02*
X79905952Y-79934819D01*
X79905952Y-79934819D02*
X80239285Y-79934819D01*
X80239285Y-79934819D02*
X80334523Y-79982438D01*
X80334523Y-79982438D02*
X80382142Y-80030057D01*
X80382142Y-80030057D02*
X80429761Y-80125295D01*
X80429761Y-80125295D02*
X80429761Y-80220533D01*
X80429761Y-80220533D02*
X80382142Y-80315771D01*
X80382142Y-80315771D02*
X80334523Y-80363390D01*
X80334523Y-80363390D02*
X80239285Y-80411009D01*
X80239285Y-80411009D02*
X79905952Y-80411009D01*
X80763095Y-79934819D02*
X81334523Y-79934819D01*
X81048809Y-80934819D02*
X81048809Y-79934819D01*
X82191666Y-80934819D02*
X81620238Y-80934819D01*
X81905952Y-80934819D02*
X81905952Y-79934819D01*
X81905952Y-79934819D02*
X81810714Y-80077676D01*
X81810714Y-80077676D02*
X81715476Y-80172914D01*
X81715476Y-80172914D02*
X81620238Y-80220533D01*
D11*
X191409800Y-179833332D02*
X191457419Y-179690475D01*
X191457419Y-179690475D02*
X191457419Y-179452380D01*
X191457419Y-179452380D02*
X191409800Y-179357142D01*
X191409800Y-179357142D02*
X191362180Y-179309523D01*
X191362180Y-179309523D02*
X191266942Y-179261904D01*
X191266942Y-179261904D02*
X191171704Y-179261904D01*
X191171704Y-179261904D02*
X191076466Y-179309523D01*
X191076466Y-179309523D02*
X191028847Y-179357142D01*
X191028847Y-179357142D02*
X190981228Y-179452380D01*
X190981228Y-179452380D02*
X190933609Y-179642856D01*
X190933609Y-179642856D02*
X190885990Y-179738094D01*
X190885990Y-179738094D02*
X190838371Y-179785713D01*
X190838371Y-179785713D02*
X190743133Y-179833332D01*
X190743133Y-179833332D02*
X190647895Y-179833332D01*
X190647895Y-179833332D02*
X190552657Y-179785713D01*
X190552657Y-179785713D02*
X190505038Y-179738094D01*
X190505038Y-179738094D02*
X190457419Y-179642856D01*
X190457419Y-179642856D02*
X190457419Y-179404761D01*
X190457419Y-179404761D02*
X190505038Y-179261904D01*
X190457419Y-178928570D02*
X191457419Y-178690475D01*
X191457419Y-178690475D02*
X190743133Y-178499999D01*
X190743133Y-178499999D02*
X191457419Y-178309523D01*
X191457419Y-178309523D02*
X190457419Y-178071428D01*
X191457419Y-177166666D02*
X191457419Y-177738094D01*
X191457419Y-177452380D02*
X190457419Y-177452380D01*
X190457419Y-177452380D02*
X190600276Y-177547618D01*
X190600276Y-177547618D02*
X190695514Y-177642856D01*
X190695514Y-177642856D02*
X190743133Y-177738094D01*
X235357342Y-55166666D02*
X235404961Y-55214285D01*
X235404961Y-55214285D02*
X235452580Y-55309523D01*
X235452580Y-55309523D02*
X235452580Y-55547618D01*
X235452580Y-55547618D02*
X235404961Y-55642856D01*
X235404961Y-55642856D02*
X235357342Y-55690475D01*
X235357342Y-55690475D02*
X235262104Y-55738094D01*
X235262104Y-55738094D02*
X235166866Y-55738094D01*
X235166866Y-55738094D02*
X235024009Y-55690475D01*
X235024009Y-55690475D02*
X234452580Y-55119047D01*
X234452580Y-55119047D02*
X234452580Y-55738094D01*
X234547819Y-56166666D02*
X234500200Y-56214285D01*
X234500200Y-56214285D02*
X234452580Y-56166666D01*
X234452580Y-56166666D02*
X234500200Y-56119047D01*
X234500200Y-56119047D02*
X234547819Y-56166666D01*
X234547819Y-56166666D02*
X234452580Y-56166666D01*
X235119247Y-57071427D02*
X234452580Y-57071427D01*
X235500200Y-56833332D02*
X234785914Y-56595237D01*
X234785914Y-56595237D02*
X234785914Y-57214284D01*
X235119247Y-57452380D02*
X235119247Y-57833332D01*
X235452580Y-57595237D02*
X234595438Y-57595237D01*
X234595438Y-57595237D02*
X234500200Y-57642856D01*
X234500200Y-57642856D02*
X234452580Y-57738094D01*
X234452580Y-57738094D02*
X234452580Y-57833332D01*
X235119247Y-58023809D02*
X235119247Y-58404761D01*
X234452580Y-58166666D02*
X235309723Y-58166666D01*
X235309723Y-58166666D02*
X235404961Y-58214285D01*
X235404961Y-58214285D02*
X235452580Y-58309523D01*
X235452580Y-58309523D02*
X235452580Y-58404761D01*
X235119247Y-58595238D02*
X235119247Y-58976190D01*
X235452580Y-58738095D02*
X234595438Y-58738095D01*
X234595438Y-58738095D02*
X234500200Y-58785714D01*
X234500200Y-58785714D02*
X234452580Y-58880952D01*
X234452580Y-58880952D02*
X234452580Y-58976190D01*
X234452580Y-59833333D02*
X234452580Y-59261905D01*
X234452580Y-59547619D02*
X235452580Y-59547619D01*
X235452580Y-59547619D02*
X235309723Y-59452381D01*
X235309723Y-59452381D02*
X235214485Y-59357143D01*
X235214485Y-59357143D02*
X235166866Y-59261905D01*
D10*
X125047618Y-115388152D02*
X125047618Y-116197676D01*
X125047618Y-116197676D02*
X124999999Y-116292914D01*
X124999999Y-116292914D02*
X124952380Y-116340533D01*
X124952380Y-116340533D02*
X124857142Y-116388152D01*
X124857142Y-116388152D02*
X124714285Y-116388152D01*
X124714285Y-116388152D02*
X124619047Y-116340533D01*
X125047618Y-116007200D02*
X124952380Y-116054819D01*
X124952380Y-116054819D02*
X124761904Y-116054819D01*
X124761904Y-116054819D02*
X124666666Y-116007200D01*
X124666666Y-116007200D02*
X124619047Y-115959580D01*
X124619047Y-115959580D02*
X124571428Y-115864342D01*
X124571428Y-115864342D02*
X124571428Y-115578628D01*
X124571428Y-115578628D02*
X124619047Y-115483390D01*
X124619047Y-115483390D02*
X124666666Y-115435771D01*
X124666666Y-115435771D02*
X124761904Y-115388152D01*
X124761904Y-115388152D02*
X124952380Y-115388152D01*
X124952380Y-115388152D02*
X125047618Y-115435771D01*
X125523809Y-115388152D02*
X125523809Y-116388152D01*
X125523809Y-115435771D02*
X125619047Y-115388152D01*
X125619047Y-115388152D02*
X125809523Y-115388152D01*
X125809523Y-115388152D02*
X125904761Y-115435771D01*
X125904761Y-115435771D02*
X125952380Y-115483390D01*
X125952380Y-115483390D02*
X125999999Y-115578628D01*
X125999999Y-115578628D02*
X125999999Y-115864342D01*
X125999999Y-115864342D02*
X125952380Y-115959580D01*
X125952380Y-115959580D02*
X125904761Y-116007200D01*
X125904761Y-116007200D02*
X125809523Y-116054819D01*
X125809523Y-116054819D02*
X125619047Y-116054819D01*
X125619047Y-116054819D02*
X125523809Y-116007200D01*
X126380952Y-116007200D02*
X126476190Y-116054819D01*
X126476190Y-116054819D02*
X126666666Y-116054819D01*
X126666666Y-116054819D02*
X126761904Y-116007200D01*
X126761904Y-116007200D02*
X126809523Y-115911961D01*
X126809523Y-115911961D02*
X126809523Y-115864342D01*
X126809523Y-115864342D02*
X126761904Y-115769104D01*
X126761904Y-115769104D02*
X126666666Y-115721485D01*
X126666666Y-115721485D02*
X126523809Y-115721485D01*
X126523809Y-115721485D02*
X126428571Y-115673866D01*
X126428571Y-115673866D02*
X126380952Y-115578628D01*
X126380952Y-115578628D02*
X126380952Y-115531009D01*
X126380952Y-115531009D02*
X126428571Y-115435771D01*
X126428571Y-115435771D02*
X126523809Y-115388152D01*
X126523809Y-115388152D02*
X126666666Y-115388152D01*
X126666666Y-115388152D02*
X126761904Y-115435771D01*
X127238095Y-115388152D02*
X127238095Y-116054819D01*
X127238095Y-115483390D02*
X127285714Y-115435771D01*
X127285714Y-115435771D02*
X127380952Y-115388152D01*
X127380952Y-115388152D02*
X127523809Y-115388152D01*
X127523809Y-115388152D02*
X127619047Y-115435771D01*
X127619047Y-115435771D02*
X127666666Y-115531009D01*
X127666666Y-115531009D02*
X127666666Y-116054819D01*
X128523809Y-116007200D02*
X128428571Y-116054819D01*
X128428571Y-116054819D02*
X128238095Y-116054819D01*
X128238095Y-116054819D02*
X128142857Y-116007200D01*
X128142857Y-116007200D02*
X128095238Y-115911961D01*
X128095238Y-115911961D02*
X128095238Y-115531009D01*
X128095238Y-115531009D02*
X128142857Y-115435771D01*
X128142857Y-115435771D02*
X128238095Y-115388152D01*
X128238095Y-115388152D02*
X128428571Y-115388152D01*
X128428571Y-115388152D02*
X128523809Y-115435771D01*
X128523809Y-115435771D02*
X128571428Y-115531009D01*
X128571428Y-115531009D02*
X128571428Y-115626247D01*
X128571428Y-115626247D02*
X128095238Y-115721485D01*
X129142857Y-116054819D02*
X129047619Y-116007200D01*
X129047619Y-116007200D02*
X129000000Y-115959580D01*
X129000000Y-115959580D02*
X128952381Y-115864342D01*
X128952381Y-115864342D02*
X128952381Y-115578628D01*
X128952381Y-115578628D02*
X129000000Y-115483390D01*
X129000000Y-115483390D02*
X129047619Y-115435771D01*
X129047619Y-115435771D02*
X129142857Y-115388152D01*
X129142857Y-115388152D02*
X129285714Y-115388152D01*
X129285714Y-115388152D02*
X129380952Y-115435771D01*
X129380952Y-115435771D02*
X129428571Y-115483390D01*
X129428571Y-115483390D02*
X129476190Y-115578628D01*
X129476190Y-115578628D02*
X129476190Y-115864342D01*
X129476190Y-115864342D02*
X129428571Y-115959580D01*
X129428571Y-115959580D02*
X129380952Y-116007200D01*
X129380952Y-116007200D02*
X129285714Y-116054819D01*
X129285714Y-116054819D02*
X129142857Y-116054819D01*
X130428571Y-116054819D02*
X129857143Y-116054819D01*
X130142857Y-116054819D02*
X130142857Y-115054819D01*
X130142857Y-115054819D02*
X130047619Y-115197676D01*
X130047619Y-115197676D02*
X129952381Y-115292914D01*
X129952381Y-115292914D02*
X129857143Y-115340533D01*
X110954819Y-89433332D02*
X111954819Y-89099999D01*
X111954819Y-89099999D02*
X110954819Y-88766666D01*
X111859580Y-87861904D02*
X111907200Y-87909523D01*
X111907200Y-87909523D02*
X111954819Y-88052380D01*
X111954819Y-88052380D02*
X111954819Y-88147618D01*
X111954819Y-88147618D02*
X111907200Y-88290475D01*
X111907200Y-88290475D02*
X111811961Y-88385713D01*
X111811961Y-88385713D02*
X111716723Y-88433332D01*
X111716723Y-88433332D02*
X111526247Y-88480951D01*
X111526247Y-88480951D02*
X111383390Y-88480951D01*
X111383390Y-88480951D02*
X111192914Y-88433332D01*
X111192914Y-88433332D02*
X111097676Y-88385713D01*
X111097676Y-88385713D02*
X111002438Y-88290475D01*
X111002438Y-88290475D02*
X110954819Y-88147618D01*
X110954819Y-88147618D02*
X110954819Y-88052380D01*
X110954819Y-88052380D02*
X111002438Y-87909523D01*
X111002438Y-87909523D02*
X111050057Y-87861904D01*
X111859580Y-86861904D02*
X111907200Y-86909523D01*
X111907200Y-86909523D02*
X111954819Y-87052380D01*
X111954819Y-87052380D02*
X111954819Y-87147618D01*
X111954819Y-87147618D02*
X111907200Y-87290475D01*
X111907200Y-87290475D02*
X111811961Y-87385713D01*
X111811961Y-87385713D02*
X111716723Y-87433332D01*
X111716723Y-87433332D02*
X111526247Y-87480951D01*
X111526247Y-87480951D02*
X111383390Y-87480951D01*
X111383390Y-87480951D02*
X111192914Y-87433332D01*
X111192914Y-87433332D02*
X111097676Y-87385713D01*
X111097676Y-87385713D02*
X111002438Y-87290475D01*
X111002438Y-87290475D02*
X110954819Y-87147618D01*
X110954819Y-87147618D02*
X110954819Y-87052380D01*
X110954819Y-87052380D02*
X111002438Y-86909523D01*
X111002438Y-86909523D02*
X111050057Y-86861904D01*
X118502438Y-88861904D02*
X118454819Y-88957142D01*
X118454819Y-88957142D02*
X118454819Y-89099999D01*
X118454819Y-89099999D02*
X118502438Y-89242856D01*
X118502438Y-89242856D02*
X118597676Y-89338094D01*
X118597676Y-89338094D02*
X118692914Y-89385713D01*
X118692914Y-89385713D02*
X118883390Y-89433332D01*
X118883390Y-89433332D02*
X119026247Y-89433332D01*
X119026247Y-89433332D02*
X119216723Y-89385713D01*
X119216723Y-89385713D02*
X119311961Y-89338094D01*
X119311961Y-89338094D02*
X119407200Y-89242856D01*
X119407200Y-89242856D02*
X119454819Y-89099999D01*
X119454819Y-89099999D02*
X119454819Y-89004761D01*
X119454819Y-89004761D02*
X119407200Y-88861904D01*
X119407200Y-88861904D02*
X119359580Y-88814285D01*
X119359580Y-88814285D02*
X119026247Y-88814285D01*
X119026247Y-88814285D02*
X119026247Y-89004761D01*
X119454819Y-88385713D02*
X118454819Y-88385713D01*
X118454819Y-88385713D02*
X119454819Y-87814285D01*
X119454819Y-87814285D02*
X118454819Y-87814285D01*
X119454819Y-87338094D02*
X118454819Y-87338094D01*
X118454819Y-87338094D02*
X118454819Y-87099999D01*
X118454819Y-87099999D02*
X118502438Y-86957142D01*
X118502438Y-86957142D02*
X118597676Y-86861904D01*
X118597676Y-86861904D02*
X118692914Y-86814285D01*
X118692914Y-86814285D02*
X118883390Y-86766666D01*
X118883390Y-86766666D02*
X119026247Y-86766666D01*
X119026247Y-86766666D02*
X119216723Y-86814285D01*
X119216723Y-86814285D02*
X119311961Y-86861904D01*
X119311961Y-86861904D02*
X119407200Y-86957142D01*
X119407200Y-86957142D02*
X119454819Y-87099999D01*
X119454819Y-87099999D02*
X119454819Y-87338094D01*
X114464819Y-87566666D02*
X113988628Y-87899999D01*
X114464819Y-88138094D02*
X113464819Y-88138094D01*
X113464819Y-88138094D02*
X113464819Y-87757142D01*
X113464819Y-87757142D02*
X113512438Y-87661904D01*
X113512438Y-87661904D02*
X113560057Y-87614285D01*
X113560057Y-87614285D02*
X113655295Y-87566666D01*
X113655295Y-87566666D02*
X113798152Y-87566666D01*
X113798152Y-87566666D02*
X113893390Y-87614285D01*
X113893390Y-87614285D02*
X113941009Y-87661904D01*
X113941009Y-87661904D02*
X113988628Y-87757142D01*
X113988628Y-87757142D02*
X113988628Y-88138094D01*
X113464819Y-87233332D02*
X114464819Y-86566666D01*
X113464819Y-86566666D02*
X114464819Y-87233332D01*
X115954819Y-88361904D02*
X115954819Y-87790476D01*
X116954819Y-88076190D02*
X115954819Y-88076190D01*
X115954819Y-87552380D02*
X116954819Y-86885714D01*
X115954819Y-86885714D02*
X116954819Y-87552380D01*
X251666666Y-80754819D02*
X251333333Y-80278628D01*
X251095238Y-80754819D02*
X251095238Y-79754819D01*
X251095238Y-79754819D02*
X251476190Y-79754819D01*
X251476190Y-79754819D02*
X251571428Y-79802438D01*
X251571428Y-79802438D02*
X251619047Y-79850057D01*
X251619047Y-79850057D02*
X251666666Y-79945295D01*
X251666666Y-79945295D02*
X251666666Y-80088152D01*
X251666666Y-80088152D02*
X251619047Y-80183390D01*
X251619047Y-80183390D02*
X251571428Y-80231009D01*
X251571428Y-80231009D02*
X251476190Y-80278628D01*
X251476190Y-80278628D02*
X251095238Y-80278628D01*
X252095238Y-80231009D02*
X252428571Y-80231009D01*
X252571428Y-80754819D02*
X252095238Y-80754819D01*
X252095238Y-80754819D02*
X252095238Y-79754819D01*
X252095238Y-79754819D02*
X252571428Y-79754819D01*
X253333333Y-80231009D02*
X253000000Y-80231009D01*
X253000000Y-80754819D02*
X253000000Y-79754819D01*
X253000000Y-79754819D02*
X253476190Y-79754819D01*
X254000000Y-79754819D02*
X254000000Y-79992914D01*
X253761905Y-79897676D02*
X254000000Y-79992914D01*
X254000000Y-79992914D02*
X254238095Y-79897676D01*
X253857143Y-80183390D02*
X254000000Y-79992914D01*
X254000000Y-79992914D02*
X254142857Y-80183390D01*
X254761905Y-79754819D02*
X254761905Y-79992914D01*
X254523810Y-79897676D02*
X254761905Y-79992914D01*
X254761905Y-79992914D02*
X255000000Y-79897676D01*
X254619048Y-80183390D02*
X254761905Y-79992914D01*
X254761905Y-79992914D02*
X254904762Y-80183390D01*
%TO.C,U2*%
X132962500Y-134507500D02*
G75*
G02*
X130422500Y-134507500I-1270000J0D01*
G01*
X130422500Y-134507500D02*
G75*
G02*
X132962500Y-134507500I1270000J0D01*
G01*
X132962500Y-130697500D02*
G75*
G02*
X130422500Y-130697500I-1270000J0D01*
G01*
X130422500Y-130697500D02*
G75*
G02*
X132962500Y-130697500I1270000J0D01*
G01*
X132962500Y-126887500D02*
G75*
G02*
X130422500Y-126887500I-1270000J0D01*
G01*
X130422500Y-126887500D02*
G75*
G02*
X132962500Y-126887500I1270000J0D01*
G01*
X132962500Y-138317500D02*
G75*
G02*
X130422500Y-138317500I-1270000J0D01*
G01*
X130422500Y-138317500D02*
G75*
G02*
X132962500Y-138317500I1270000J0D01*
G01*
X132962500Y-142127500D02*
G75*
G02*
X130422500Y-142127500I-1270000J0D01*
G01*
X130422500Y-142127500D02*
G75*
G02*
X132962500Y-142127500I1270000J0D01*
G01*
X132962500Y-145937500D02*
G75*
G02*
X130422500Y-145937500I-1270000J0D01*
G01*
X130422500Y-145937500D02*
G75*
G02*
X132962500Y-145937500I1270000J0D01*
G01*
X124707500Y-136412500D02*
G75*
G02*
X104387500Y-136412500I-10160000J0D01*
G01*
X104387500Y-136412500D02*
G75*
G02*
X124707500Y-136412500I10160000J0D01*
G01*
X94227500Y-147842500D02*
X94227500Y-124982500D01*
X133597500Y-147842500D02*
X133597500Y-124982500D01*
X133597500Y-124982500D02*
X94227500Y-124982500D01*
X133597500Y-147842500D02*
X94227500Y-147842500D01*
%TO.C,U5*%
D11*
X214000000Y-133500000D02*
X194000000Y-133500000D01*
X194000000Y-149500000D01*
X214000000Y-149500000D01*
X214000000Y-133500000D01*
%TO.C,U4*%
D12*
X93310000Y-124700000D02*
X78070000Y-124700000D01*
X78070000Y-99300000D01*
X93310000Y-99300000D01*
X93310000Y-124700000D01*
D13*
%TO.C,U1*%
X166530000Y-85540000D02*
X166530000Y-136490000D01*
X166530000Y-136490000D02*
X138020000Y-136490000D01*
X138020000Y-85540000D02*
X166530000Y-85540000D01*
X138020000Y-136490000D02*
X138020000Y-85540000D01*
D14*
X137550000Y-95500000D02*
G75*
G02*
X137350000Y-95500000I-100000J0D01*
G01*
X137350000Y-95500000D02*
G75*
G02*
X137550000Y-95500000I100000J0D01*
G01*
D13*
X138020000Y-85540000D02*
X149089000Y-85540000D01*
X149089000Y-85540000D02*
X155800000Y-85540000D01*
X155800000Y-85540000D02*
X166530000Y-85540000D01*
X138020000Y-136490000D02*
X138020000Y-85540000D01*
X166530000Y-85540000D02*
X166530000Y-136490000D01*
X138020000Y-136490000D02*
X143390000Y-136490000D01*
X143390000Y-136490000D02*
X161080000Y-136490000D01*
X161080000Y-136490000D02*
X166530000Y-136490000D01*
D12*
%TO.C,J4*%
X233890000Y-146910000D02*
X233890000Y-145580000D01*
X235000000Y-146910000D02*
X233890000Y-146910000D01*
X236460000Y-140140000D02*
X236050000Y-140140000D01*
X236460000Y-140860000D02*
X236050000Y-140860000D01*
X236460000Y-142680000D02*
X236050000Y-142680000D01*
X236460000Y-143400000D02*
X236050000Y-143400000D01*
X236460000Y-145220000D02*
X236110000Y-145220000D01*
X236460000Y-145940000D02*
X236110000Y-145940000D01*
X236460000Y-146910000D02*
X236460000Y-139170000D01*
X245090000Y-139170000D02*
X236460000Y-139170000D01*
X245090000Y-141770000D02*
X236460000Y-141770000D01*
X245090000Y-144310000D02*
X236460000Y-144310000D01*
X245090000Y-144428100D02*
X236460000Y-144428100D01*
X245090000Y-144546195D02*
X236460000Y-144546195D01*
X245090000Y-144664290D02*
X236460000Y-144664290D01*
X245090000Y-144782385D02*
X236460000Y-144782385D01*
X245090000Y-144900480D02*
X236460000Y-144900480D01*
X245090000Y-145018575D02*
X236460000Y-145018575D01*
X245090000Y-145136670D02*
X236460000Y-145136670D01*
X245090000Y-145254765D02*
X236460000Y-145254765D01*
X245090000Y-145372860D02*
X236460000Y-145372860D01*
X245090000Y-145490955D02*
X236460000Y-145490955D01*
X245090000Y-145609050D02*
X236460000Y-145609050D01*
X245090000Y-145727145D02*
X236460000Y-145727145D01*
X245090000Y-145845240D02*
X236460000Y-145845240D01*
X245090000Y-145963335D02*
X236460000Y-145963335D01*
X245090000Y-146081430D02*
X236460000Y-146081430D01*
X245090000Y-146199525D02*
X236460000Y-146199525D01*
X245090000Y-146317620D02*
X236460000Y-146317620D01*
X245090000Y-146435715D02*
X236460000Y-146435715D01*
X245090000Y-146553810D02*
X236460000Y-146553810D01*
X245090000Y-146671905D02*
X236460000Y-146671905D01*
X245090000Y-146790000D02*
X236460000Y-146790000D01*
X245090000Y-146910000D02*
X236460000Y-146910000D01*
X245090000Y-146910000D02*
X245090000Y-139170000D01*
%TO.C,J3*%
X97057500Y-80700000D02*
X97057500Y-95400000D01*
X87857500Y-80700000D02*
X97057500Y-80700000D01*
X87857500Y-89500000D02*
X87857500Y-80700000D01*
X97257500Y-94550000D02*
X97257500Y-95600000D01*
X97057500Y-95400000D02*
X94457500Y-95400000D01*
X90557500Y-95400000D02*
X87857500Y-95400000D01*
X87857500Y-95400000D02*
X87857500Y-93500000D01*
X96207500Y-95600000D02*
X97257500Y-95600000D01*
%TO.C,J1*%
X80310000Y-133145000D02*
X80310000Y-140885000D01*
X80310000Y-133145000D02*
X88940000Y-133145000D01*
X80310000Y-133265000D02*
X88940000Y-133265000D01*
X80310000Y-133383095D02*
X88940000Y-133383095D01*
X80310000Y-133501190D02*
X88940000Y-133501190D01*
X80310000Y-133619285D02*
X88940000Y-133619285D01*
X80310000Y-133737380D02*
X88940000Y-133737380D01*
X80310000Y-133855475D02*
X88940000Y-133855475D01*
X80310000Y-133973570D02*
X88940000Y-133973570D01*
X80310000Y-134091665D02*
X88940000Y-134091665D01*
X80310000Y-134209760D02*
X88940000Y-134209760D01*
X80310000Y-134327855D02*
X88940000Y-134327855D01*
X80310000Y-134445950D02*
X88940000Y-134445950D01*
X80310000Y-134564045D02*
X88940000Y-134564045D01*
X80310000Y-134682140D02*
X88940000Y-134682140D01*
X80310000Y-134800235D02*
X88940000Y-134800235D01*
X80310000Y-134918330D02*
X88940000Y-134918330D01*
X80310000Y-135036425D02*
X88940000Y-135036425D01*
X80310000Y-135154520D02*
X88940000Y-135154520D01*
X80310000Y-135272615D02*
X88940000Y-135272615D01*
X80310000Y-135390710D02*
X88940000Y-135390710D01*
X80310000Y-135508805D02*
X88940000Y-135508805D01*
X80310000Y-135626900D02*
X88940000Y-135626900D01*
X80310000Y-135745000D02*
X88940000Y-135745000D01*
X80310000Y-138285000D02*
X88940000Y-138285000D01*
X80310000Y-140885000D02*
X88940000Y-140885000D01*
X88940000Y-133145000D02*
X88940000Y-140885000D01*
X88940000Y-134115000D02*
X89290000Y-134115000D01*
X88940000Y-134835000D02*
X89290000Y-134835000D01*
X88940000Y-136655000D02*
X89350000Y-136655000D01*
X88940000Y-137375000D02*
X89350000Y-137375000D01*
X88940000Y-139195000D02*
X89350000Y-139195000D01*
X88940000Y-139915000D02*
X89350000Y-139915000D01*
X90400000Y-133145000D02*
X91510000Y-133145000D01*
X91510000Y-133145000D02*
X91510000Y-134475000D01*
%TO.C,BT1*%
X79695000Y-84520000D02*
X79695000Y-87120000D01*
X79695000Y-84520000D02*
X82355000Y-84520000D01*
X79695000Y-87120000D02*
X82355000Y-87120000D01*
X81025000Y-81920000D02*
X82355000Y-81920000D01*
X82355000Y-81920000D02*
X82355000Y-83250000D01*
X82355000Y-84520000D02*
X82355000Y-87120000D01*
%TO.C,SW1*%
D11*
X182000000Y-142000000D02*
X188000000Y-142000000D01*
X188000000Y-136000000D01*
X182000000Y-136000000D01*
X182000000Y-142000000D01*
%TO.C,2.4tft1*%
X177910000Y-94000000D02*
X175910000Y-94000000D01*
X175910000Y-129000000D01*
X177910000Y-129000000D01*
X177910000Y-94000000D01*
X185410000Y-90140000D02*
X175000000Y-90140000D01*
X175000000Y-132860000D01*
X185410000Y-132860000D01*
X185410000Y-90140000D01*
X245670000Y-90140000D02*
X185410000Y-90140000D01*
X185410000Y-132860000D01*
X245670000Y-132860000D01*
X245670000Y-90140000D01*
X252090000Y-90140000D02*
X174910000Y-90140000D01*
X174910000Y-132860000D01*
X252090000Y-132860000D01*
X252090000Y-90140000D01*
X174910000Y-90140000D02*
X174910000Y-95500000D01*
%TO.C,gpsneo1*%
X103050000Y-119600000D02*
X128950000Y-119600000D01*
X128950000Y-83600000D01*
X103050000Y-83600000D01*
X103050000Y-119600000D01*
%TD*%
D15*
%TO.C,gpsneo1*%
X105700000Y-85800000D03*
X126300000Y-85800000D03*
%TD*%
M02*
